<svg width="15" height="22" viewBox="0 0 15 22" fill="none" xmlns="http://www.w3.org/2000/svg">
<path d="M2 22C1.45 22 0.979167 21.8042 0.5875 21.4125C0.195833 21.0208 0 20.55 0 20V2C0 1.45 0.195833 0.979167 0.5875 0.5875C0.979167 0.195833 1.45 0 2 0H12C12.55 0 13.0208 0.195833 13.4125 0.5875C13.8042 0.979167 14 1.45 14 2V5.1C14.3 5.21667 14.5417 5.4 14.725 5.65C14.9083 5.9 15 6.18333 15 6.5V8.5C15 8.81667 14.9083 9.1 14.725 9.35C14.5417 9.6 14.3 9.78333 14 9.9V20C14 20.55 13.8042 21.0208 13.4125 21.4125C13.0208 21.8042 12.55 22 12 22H2V22M2 20H12V20V20V2V2V2H2V2V2V20V20V20V20M2 20V20V20V2V2V2V2V2V2V20V20V20V20V20M4.85 15H9.15C9.38333 15 9.58333 14.9167 9.75 14.75C9.91667 14.5833 10 14.3833 10 14.15V10.85C10 10.6167 9.91667 10.4167 9.75 10.25C9.58333 10.0833 9.38333 10 9.15 10H9V9C9 8.45 8.80417 7.97917 8.4125 7.5875C8.02083 7.19583 7.55 7 7 7C6.45 7 5.97917 7.19583 5.5875 7.5875C5.19583 7.97917 5 8.45 5 9V10H4.85C4.61667 10 4.41667 10.0833 4.25 10.25C4.08333 10.4167 4 10.6167 4 10.85V14.15C4 14.3833 4.08333 14.5833 4.25 14.75C4.41667 14.9167 4.61667 15 4.85 15V15M6 10V9C6 8.71667 6.09583 8.47917 6.2875 8.2875C6.47917 8.09583 6.71667 8 7 8C7.28333 8 7.52083 8.09583 7.7125 8.2875C7.90417 8.47917 8 8.71667 8 9V10H6V10" fill="#5F5E5E"/>
</svg>
